<svg width="22" height="22" viewBox="0 0 22 22" fill="none" xmlns="http://www.w3.org/2000/svg">
<circle cx="11" cy="11" r="11" fill="url(#paint0_linear_72_30)"/>
<circle cx="11" cy="11" r="9.85" fill="url(#paint1_linear_72_30)" stroke="#292929" stroke-width="0.3"/>
<g filter="url(#filter0_d_72_30)">
<path fill-rule="evenodd" clip-rule="evenodd" d="M6.5 10C5.67157 10 5 9.32843 5 8.5C5 7.67157 5.67157 7 6.5 7H15.5C16.3284 7 17 7.67157 17 8.5C17 9.32843 16.3284 10 15.5 10H6.5ZM6.5 15C5.67157 15 5 14.3284 5 13.5C5 12.6716 5.67157 12 6.5 12H15.5C16.3284 12 17 12.6716 17 13.5C17 14.3284 16.3284 15 15.5 15H6.5Z" fill="url(#paint2_linear_72_30)"/>
</g>
<defs>
<filter id="filter0_d_72_30" x="4" y="7" width="14" height="10" filterUnits="userSpaceOnUse" color-interpolation-filters="sRGB">
<feFlood flood-opacity="0" result="BackgroundImageFix"/>
<feColorMatrix in="SourceAlpha" type="matrix" values="0 0 0 0 0 0 0 0 0 0 0 0 0 0 0 0 0 0 127 0" result="hardAlpha"/>
<feOffset dy="1"/>
<feGaussianBlur stdDeviation="0.5"/>
<feComposite in2="hardAlpha" operator="out"/>
<feColorMatrix type="matrix" values="0 0 0 0 0 0 0 0 0 0 0 0 0 0 0 0 0 0 0.14 0"/>
<feBlend mode="normal" in2="BackgroundImageFix" result="effect1_dropShadow_72_30"/>
<feBlend mode="normal" in="SourceGraphic" in2="effect1_dropShadow_72_30" result="shape"/>
</filter>
<linearGradient id="paint0_linear_72_30" x1="11" y1="0" x2="11" y2="22" gradientUnits="userSpaceOnUse">
<stop stop-color="#414141"/>
<stop offset="1" stop-color="#151515"/>
</linearGradient>
<linearGradient id="paint1_linear_72_30" x1="11" y1="1" x2="11" y2="21" gradientUnits="userSpaceOnUse">
<stop stop-color="#F1F1F1"/>
<stop offset="1" stop-color="#696969"/>
</linearGradient>
<linearGradient id="paint2_linear_72_30" x1="19.5" y1="4.95454" x2="8.92454" y2="18.1516" gradientUnits="userSpaceOnUse">
<stop stop-color="white"/>
<stop offset="1" stop-color="#EEEEEE"/>
</linearGradient>
</defs>
</svg>
